Coordinates
version=1
nRows=26
nColumns=24
inDegrees=yes

Units are S.I. units (second, meters, Newtons, ...)
Angles are in degrees.

endheader
time	pelvis_tilt	pelvis_list	pelvis_rotation	pelvis_tx	pelvis_ty	pelvis_tz	hip_flexion_r	hip_adduction_r	hip_rotation_r	knee_angle_r	ankle_angle_r	subtalar_angle_r	mtp_angle_r	hip_flexion_l	hip_adduction_l	hip_rotation_l	knee_angle_l	ankle_angle_l	subtalar_angle_l	mtp_angle_l	lumbar_extension	lumbar_bending	lumbar_rotation
      0.84133333	      2.42778262	      2.00739178	     -1.28165122	     -0.24373334	      1.02245973	      0.37016817	     -4.76246459	      0.27815321	      0.45619449	    -14.66279780	     13.09228135	     -4.51178359	     -4.50154499	     18.69768064	      3.30236860	     -2.31073727	    -48.41596311	      6.38462091	     -9.92712449	     -3.53654695	    -14.70392226	      4.14193787	      3.93622031
      0.84550000	      2.38849929	      2.06033429	     -1.26875705	     -0.23874407	      1.02286996	      0.37018456	     -5.16381267	      0.21260673	      0.41244480	    -14.34233607	     12.82621323	     -4.53859176	     -4.44682762	     18.86137905	      3.42811142	     -2.22469235	    -47.04357848	      6.57308450	     -9.91955646	     -3.58396730	    -14.69995936	      4.05490838	      4.00324660
      0.84966667	      2.35044246	      2.10137730	     -1.24762475	     -0.23375420	      1.02323649	      0.37018392	     -5.56426842	      0.15970428	      0.35419646	    -14.02691183	     12.55728031	     -4.55968176	     -4.38321173	     19.01065410	      3.54236221	     -2.12801922	    -45.64425143	      6.71733296	     -9.91595010	     -3.63388151	    -14.70091666	      3.98633984	      4.06086685
      0.85383333	      2.28390828	      2.14153334	     -1.22324680	     -0.22876474	      1.02352547	      0.37016629	     -5.91517571	      0.10502181	      0.26144043	    -13.75130194	     12.27832802	     -4.55347713	     -4.34605425	     19.17691913	      3.65299712	     -2.03209319	    -44.21615517	      6.82891034	     -9.87721319	     -3.66255979	    -14.66226138	      3.92426219	      4.09760839
      0.85800000	      2.26729981	      2.18320526	     -1.18872916	     -0.22375419	      1.02387244	      0.37013809	     -6.34576890	      0.05319586	      0.19793053	    -13.42432999	     12.03044558	     -4.58307062	     -4.26674384	     19.25956612	      3.77941914	     -1.89632183	    -42.72883913	      6.84503969	     -9.94890545	     -3.71688580	    -14.68939688	      3.85496325	      4.13483284
      0.86216667	      2.24452178	      2.22082040	     -1.14929419	     -0.21873977	      1.02417911	      0.37009714	     -6.75598072	      0.00382698	      0.09970169	    -13.12620843	     11.76247355	     -4.58716759	     -4.18006103	     19.33169693	      3.89767821	     -1.76259444	    -41.21178150	      6.83916974	     -9.97468211	     -3.76969235	    -14.70445576	      3.79554848	      4.15448104
      0.86633333	      2.17702734	      2.25299593	     -1.10786372	     -0.21373220	      1.02436176	      0.37005192	     -7.09422434	     -0.03981486	     -0.01660206	    -12.88108592	     11.50407764	     -4.57341435	     -4.10037082	     19.44068663	      4.00672785	     -1.62460955	    -39.67534560	      6.79888410	     -9.98607406	     -3.81481923	    -14.65986052	      3.73483423	      4.16704677
      0.87050000	      2.13034700	      2.28844482	     -1.05861385	     -0.20868389	      1.02456943	      0.36998602	     -7.47753371	     -0.08543884	     -0.13333299	    -12.58892111	     11.25801616	     -4.56722739	     -3.98981834	     19.50001385	      4.12297228	     -1.47955066	    -38.09334929	      6.69679143	    -10.05891704	     -3.87102821	    -14.65109455	      3.69211112	      4.16832309
      0.87466667	      2.07224673	      2.30878891	     -1.00455273	     -0.20365168	      1.02469750	      0.36990908	     -7.82486940	     -0.11467127	     -0.26796379	    -12.35087923	     11.01178924	     -4.55068111	     -3.86828608	     19.55835137	      4.22148660	     -1.32491972	    -36.49344336	      6.57498851	    -10.09482259	     -3.92567997	    -14.61876727	      3.65452239	      4.16004854
      0.87883333	      2.00448249	      2.33230073	     -0.94965977	     -0.19859776	      1.02479566	      0.36983125	     -8.15930674	     -0.14630664	     -0.40831091	    -12.11813908	     10.76357066	     -4.53115932	     -3.73444330	     19.60342618	      4.32087059	     -1.17109875	    -34.85615907	      6.40819479	    -10.14291744	     -3.97964314	    -14.57251149	      3.61540580	      4.14715442
      0.88300000	      1.94395526	      2.35480930	     -0.89388040	     -0.19352648	      1.02487197	      0.36975351	     -8.49976695	     -0.17597847	     -0.55581668	    -11.89179608	     10.51316897	     -4.50935461	     -3.59207529	     19.62002555	      4.41594831	     -1.01953081	    -33.18987131	      6.21027064	    -10.18210996	     -4.03057453	    -14.54295785	      3.57652279	      4.12840594
      0.88716667	      1.86330253	      2.36349059	     -0.83636464	     -0.18844117	      1.02488187	      0.36966101	     -8.81011552	     -0.19026035	     -0.70045788	    -11.68471300	     10.26926587	     -4.48721723	     -3.44259288	     19.64170332	      4.49264959	     -0.87370730	    -31.50849099	      5.99371170	    -10.20609009	     -4.07689616	    -14.48936470	      3.56209970	      4.10952655
      0.89133333	      1.79275715	      2.38064539	     -0.78047154	     -0.18333815	      1.02486004	      0.36956523	     -9.12249916	     -0.21484726	     -0.86518165	    -11.49871536	     10.03042397	     -4.45966136	     -3.28768767	     19.63240954	      4.57329392	     -0.74565501	    -29.80128430	      5.74934093	    -10.22689788	     -4.11853852	    -14.43946978	      3.53971800	      4.08443158
      0.89550000	      1.74627125	      2.38667058	     -0.72415793	     -0.17820401	      1.02484252	      0.36947899	     -9.46241602	     -0.22467918	     -1.01727764	    -11.31557185	      9.81531224	     -4.40914919	     -3.09883232	     19.57087102	      4.64330371	     -0.59714592	    -28.06522941	      5.47184562	    -10.26855867	     -4.15961371	    -14.40245439	      3.51032482	      4.05574883
      0.89966667	      1.64419703	      2.37804953	     -0.67010219	     -0.17306820	      1.02468700	      0.36937608	     -9.72119928	     -0.22003304	     -1.17087973	    -11.17776255	      9.59651672	     -4.37622360	     -2.88684312	     19.56401383	      4.69203317	     -0.46766015	    -26.33947787	      5.18969014	    -10.29032282	     -4.19512713	    -14.31512714	      3.50775872	      4.02818085
      0.90383333	      1.57716024	      2.37797992	     -0.62248047	     -0.16789229	      1.02455480	      0.36928776	    -10.01811237	     -0.22461312	     -1.32453763	    -11.04195038	      9.38836358	     -4.32888316	     -2.66306065	     19.49484327	      4.74297141	     -0.35995986	    -24.59162562	      4.90081260	    -10.27513709	     -4.22302662	    -14.25936602	      3.49511644	      4.00527285
      0.90800000	      1.48124401	      2.35416903	     -0.55186868	     -0.16269609	      1.02433275	      0.36911122	    -10.27292098	     -0.20874790	     -1.55085805	    -10.93285148	      9.17686648	     -4.16272774	     -1.86251863	     19.44583848	      4.78662308	     -0.19570553	    -22.84779322	      4.54084717	    -10.36650637	     -4.26484372	    -14.16916189	      3.54257009	      3.98269716
      0.91216667	      1.44233442	      2.34597368	     -0.53556864	     -0.15746266	      1.02415829	      0.36908839	    -10.59290270	     -0.20195769	     -1.61872411	    -10.81605413	      8.99739516	     -4.22239405	     -1.60730153	     19.31730251	      4.80521429	     -0.16913252	    -21.10634120	      4.31036124	    -10.22568574	     -4.27151405	    -14.14214344	      3.51417145	      3.97418090
      0.91633333	      1.36789282	      2.32981207	     -0.51510877	     -0.15223131	      1.02387512	      0.36900417	    -10.83667349	     -0.19630090	     -1.75664341	    -10.78003997	      8.78837808	     -4.18988117	     -1.36158503	     19.22053009	      4.82509540	     -0.11805927	    -19.38130370	      4.03403607	    -10.15409755	     -4.26957200	    -14.08795861	      3.52057048	      3.96520134
      0.92050000	      1.27753947	      2.28031578	     -0.47621644	     -0.14695564	      1.02352213	      0.36889204	    -11.06907302	     -0.15406450	     -1.92445628	    -10.73046622	      8.56270035	     -4.12350200	      3.09461986	     19.14173096	      4.81415772	     -0.05469869	    -17.70128108	      3.77061571	    -10.04461234	     -3.92712869	    -13.99042990	      3.56118884	      3.95982574
      0.92466667	      1.16298047	      2.23795590	     -0.47135201	     -0.14164393	      1.02309570	      0.36884023	    -11.26006735	     -0.11928214	     -2.01479216	    -10.71890899	      8.37469807	     -4.12249818	      3.10459811	     19.09313522	      4.78813509	     -0.10936057	    -16.07514021	      3.55855563	     -9.81176931	     -3.93072858	    -13.85108470	      3.59470684	      3.96929177
      0.92883333	      1.15888738	      2.19705629	     -0.47435930	     -0.13633949	      1.02278455	      0.36877049	    -11.56065983	     -0.09124896	     -2.10706408	    -10.72742336	      8.20005215	     -4.08499193	      3.15361672	     18.88793224	      4.78246115	     -0.05078454	    -14.41888962	      3.31956611	     -9.74708338	     -3.92274992	    -13.88400578	      3.61472606	      3.99024911
      0.93300000	      1.09253528	      2.13676057	     -0.48017347	     -0.13099674	      1.02233603	      0.36869352	    -11.77789207	     -0.04573261	     -2.20098005	    -10.77416126	      8.05621089	     -4.01336740	      3.23056204	     18.76557208	      4.75020006	     -0.04363874	    -12.85140369	      3.12365453	     -9.59293979	     -3.90181630	    -13.81977558	      3.66579773	      4.01527278
      0.93716667	      1.03195656	      2.07859297	     -0.49614479	     -0.12562681	      1.02184806	      0.36862438	    -11.98558287	     -0.00642700	     -2.29236757	    -10.85624030	      7.92833201	     -3.93176313	      3.33748560	     18.63788803	      4.71797497	     -0.05494975	    -11.34560141	      2.95974115	     -9.41584684	     -3.86945361	    -13.75885762	      3.70965953	      4.04908869
      0.94133333	      0.98361661	      2.02252567	     -0.52437894	     -0.12022670	      1.02134059	      0.36856049	    -12.19133095	      0.02515286	     -2.37531328	    -10.97207016	      7.80264264	     -3.84842842	      3.46143872	     18.49804030	      4.68580974	     -0.08565850	     -9.90668711	      2.82906253	     -9.21239998	     -3.83129610	    -13.70820417	      3.75616088	      4.08679975
      0.94550000	      0.94834891	      1.96323847	     -0.56331847	     -0.11480659	      1.02081880	      0.36850982	    -12.39898412	      0.05705454	     -2.45227680	    -11.11291506	      7.69154539	     -3.75082286	      3.62160011	     18.34625335	      4.65114821	     -0.11216088	     -8.53875163	      2.71880472	     -9.01444189	     -3.78197390	    -13.67509236	      3.79194924	      4.13461355
